<svg width="739" height="646" viewBox="0 0 739 646" fill="none" xmlns="http://www.w3.org/2000/svg">
<path d="M63.0883 343.47L314.447 147.07L416.617 71.5551L507.876 0H738L739 236.682V296.729L361.043 579.474C331.768 601.375 298.873 617.964 263.858 628.484L192.938 643.581L186.052 644.259C154.594 647.355 122.906 641.396 94.7214 627.085C81.8751 620.562 69.9336 612.393 59.1984 602.784L53.5762 597.751C47.0813 591.937 41.1614 585.512 35.8986 578.563C28.8722 569.285 22.7569 559.352 17.6378 548.9L11.7953 536.971L5.89766 518.825C3.09566 507.761 1.35724 496.454 0.706094 485.059L0 472.703L0.688765 459.723C1.35009 447.259 3.64508 434.937 7.51491 423.071C10.3619 414.342 14.0454 405.908 18.5143 397.887L21.0631 393.313L30.3308 378.947C39.2585 365.427 50.3215 353.445 63.0883 343.47Z" fill="black" fill-opacity="0.97"/>
</svg>
