<svg width="48" height="49" viewBox="0 0 48 49" fill="none" xmlns="http://www.w3.org/2000/svg">
<path d="M12.7428 22.8339L11.3327 21.3202L10.4377 19.949L10.1643 16.3982L7.47983 16.8226L6.41771 17.9581L4.30016 17.6017L2.60612 17.3166L2.82122 16.0385L5.17593e-05 14.6875L0.430258 12.1313L0.788763 10.0012C0.846124 9.66036 1.80309 9.14967 2.2744 8.93692L5.66248 9.50714C6.6789 9.6782 7.41102 6.88076 7.65002 5.46065L3.49331 1.69439L8.29533 1.62637L9.98937 1.91147L12.2436 4.04326L13.3775 2.48169L13.736 0.351528L15.43 0.636634L19.4567 2.94706e-05L20.0102 4.47418L24.1019 6.03901L24.3887 4.33488L25.8744 3.27061L26.9298 4.76254L29.6859 3.9121L30.0445 1.78195L31.1649 5.47531L30.8781 7.17943L28.8255 9.02448L33.4191 7.60709L34.7547 10.0224L35.6017 10.1649L37.4324 12.2254L39.9735 12.6531L42.1628 12.5834L43.2182 14.0754L44.6254 16.0646L47.0948 16.9183L47.7267 18.3389L48.0001 21.8897L45.3807 24.5156L42.7612 27.1414L41.8358 30.0524L41.4056 32.6086L41.0471 34.7387L37.7957 35.9439L34.9678 37.2204L30.0224 38.1404L30.726 39.1351L29.6639 40.2706L29.3054 42.4008L28.8035 45.383L24.3533 45.9483L23.8514 48.9305L21.3103 48.5029L19.9748 46.0876L17.1895 44.5236L19.2779 42.4655L20.8352 40.9752L22.6726 40.4083L22.2558 37.7095L21.6956 35.8629L20.4603 33.033L20.4385 30.3941L21.4699 29.1985L23.859 26.9472L26.9965 23.9909L26.5875 25.5818C26.4579 26.0861 26.7302 26.6068 27.2184 26.788L29.0413 27.4647C29.5546 27.6552 30.1266 27.405 30.3351 26.8988L30.7957 25.7807L31.4469 23.5944C31.6951 22.7615 31.7255 21.8788 31.5353 21.0307L31.1235 19.1947C31.0142 18.7074 30.5671 18.3716 30.0686 18.4025L28.5441 18.4969C27.0533 18.055 26.011 16.7108 25.9542 15.1569L25.909 13.9208C25.8953 13.5466 25.6768 13.2103 25.3404 13.0459L22.5069 11.6606C22.1175 11.4703 21.6689 11.4405 21.2578 11.5777L17.331 12.8886C16.8798 13.0393 16.5934 13.4826 16.6415 13.9558L16.8069 15.5825C16.8775 16.2774 17.6119 16.6958 18.2457 16.4021L19.4204 15.8579L12.7428 22.8339Z" fill="url(#paint0_linear_287_549)"/>
<defs>
<linearGradient id="paint0_linear_287_549" x1="15.6384" y1="1.98601" x2="27.7293" y2="42.4851" gradientUnits="userSpaceOnUse">
<stop stop-color="#7FB432"/>
<stop offset="0.949999" stop-color="#FC8F03"/>
</linearGradient>
</defs>
</svg>
