<svg width="295" height="393" viewBox="0 0 295 393" fill="none" xmlns="http://www.w3.org/2000/svg">
<path d="M48.9813 184.573L293.014 -9.28771e-06L293.761 136.921L294.253 227.19L294.709 310.742L195.37 374.485C189.377 378.33 183.045 381.62 176.454 384.313C160.732 390.737 143.8 393.659 126.835 392.875L107.408 391.978L106.681 391.896C82.3157 389.141 59.2754 379.367 40.3622 363.76L36.5357 359.983C26.4842 350.06 18.1032 338.577 11.7171 325.979L8.89996 320.422C5.13512 312.995 2.44886 305.068 0.922324 296.883C0.0101679 289.412 -0.226121 281.874 0.216331 274.36L0.699735 266.152L2.11365 257.526C3.4344 249.47 5.75036 241.608 9.00837 234.122C11.4397 228.535 14.3835 223.186 17.8019 218.142L19.6351 215.437L26.4383 206.642C32.9849 198.358 40.5602 190.942 48.9813 184.573Z" fill="#EB9309"/>
</svg>
