<svg width="701" height="655" viewBox="0 0 701 655" fill="none" xmlns="http://www.w3.org/2000/svg">
<g style="mix-blend-mode:hard-light" filter="url(#filter0_f_287_516)">
<path d="M244.552 138.663C186.08 138.663 138.663 185.593 138.663 243.493C138.663 290.232 157.194 401.161 339.598 513.297C342.865 515.286 346.616 516.337 350.441 516.337C354.265 516.337 358.016 515.286 361.284 513.297C543.688 401.161 562.218 290.232 562.218 243.493C562.218 185.593 514.801 138.663 456.329 138.663C397.858 138.663 350.441 202.196 350.441 202.196C350.441 202.196 303.024 138.663 244.552 138.663Z" stroke="#FFDC82" stroke-width="27.0833" stroke-linecap="round" stroke-linejoin="round"/>
</g>
<g style="mix-blend-mode:hard-light" filter="url(#filter1_f_287_516)">
<path d="M244.552 138.663C186.08 138.663 138.663 185.593 138.663 243.493C138.663 290.232 157.194 401.161 339.598 513.297C342.865 515.286 346.616 516.337 350.441 516.337C354.265 516.337 358.016 515.286 361.284 513.297C543.688 401.161 562.218 290.232 562.218 243.493C562.218 185.593 514.801 138.663 456.329 138.663C397.858 138.663 350.441 202.196 350.441 202.196C350.441 202.196 303.024 138.663 244.552 138.663Z" stroke="#FFDC82" stroke-width="35.4167" stroke-linecap="round" stroke-linejoin="round"/>
</g>
<g filter="url(#filter2_f_287_516)">
<path d="M244.552 138.663C186.08 138.663 138.663 185.593 138.663 243.493C138.663 290.232 157.194 401.161 339.598 513.297C342.865 515.286 346.616 516.337 350.441 516.337C354.265 516.337 358.016 515.286 361.284 513.297C543.688 401.161 562.218 290.232 562.218 243.493C562.218 185.593 514.801 138.663 456.329 138.663C397.858 138.663 350.441 202.196 350.441 202.196C350.441 202.196 303.024 138.663 244.552 138.663Z" stroke="#FFDC82" stroke-width="16.6667" stroke-linecap="round" stroke-linejoin="round"/>
</g>
<defs>
<filter id="filter0_f_287_516" x="0" y="0" width="700.881" height="655" filterUnits="userSpaceOnUse" color-interpolation-filters="sRGB">
<feFlood flood-opacity="0" result="BackgroundImageFix"/>
<feBlend mode="normal" in="SourceGraphic" in2="BackgroundImageFix" result="shape"/>
<feGaussianBlur stdDeviation="62.5" result="effect1_foregroundBlur_287_516"/>
</filter>
<filter id="filter1_f_287_516" x="79.2362" y="79.2361" width="542.409" height="496.528" filterUnits="userSpaceOnUse" color-interpolation-filters="sRGB">
<feFlood flood-opacity="0" result="BackgroundImageFix"/>
<feBlend mode="normal" in="SourceGraphic" in2="BackgroundImageFix" result="shape"/>
<feGaussianBlur stdDeviation="20.8333" result="effect1_foregroundBlur_287_516"/>
</filter>
<filter id="filter2_f_287_516" x="126.152" y="126.152" width="448.577" height="402.696" filterUnits="userSpaceOnUse" color-interpolation-filters="sRGB">
<feFlood flood-opacity="0" result="BackgroundImageFix"/>
<feBlend mode="normal" in="SourceGraphic" in2="BackgroundImageFix" result="shape"/>
<feGaussianBlur stdDeviation="2.08333" result="effect1_foregroundBlur_287_516"/>
</filter>
</defs>
</svg>
