<svg width="591" height="986" viewBox="0 0 591 986" fill="none" xmlns="http://www.w3.org/2000/svg">
<path d="M466.044 237.481L454.567 207.014L455.564 192.308L457.908 109.268L482.863 88.7449L403.035 50.5156L384.125 -1.35058e-05L215.07 -1.03983e-05L-8.61575e-05 -1.04026e-05L-8.95074e-05 257.696L-8.73031e-05 308.713L27.1955 349.146L23.0512 390.797L39.3977 456.728L88.9136 504.574L99.5694 561.657L141.303 630.799L171.414 713.23L164.586 822.228L254.914 918.363L285.214 912.395L314.182 957.81L338.655 943.346L373.777 986L458.477 963.389L495.761 930.646L533.278 931.43L544.588 913.351L567.77 908.29L590.219 867.168L555.956 881.979L531.543 881.469L513.749 907.161L484.334 912.092L457.06 922.587L418.526 923.823L446.048 885.782L482.908 871.025L517.19 871.742L543.042 826.136L565.634 787.825L490.268 772.469L386.556 751.926L384.822 666.428L327.229 645.619L395.519 638.693L366.974 578.47L477.524 528.604L467.7 470.163L470.638 426.839L531.925 397.441L487.941 375.012L445.891 334.93L461.397 305.994L450.715 263.808L466.044 237.481Z" fill="#E5E5E5" fill-opacity="0.5"/>
</svg>
